Coordinates
version=1
nRows=16
nColumns=40
inDegrees=yes

Units are S.I. units (second, meters, Newtons, ...)
Angles are in degrees.

endheader
time	pelvis_tilt	pelvis_list	pelvis_rotation	pelvis_tx	pelvis_ty	pelvis_tz	hip_flexion_r	hip_adduction_r	hip_rotation_r	knee_angle_r	knee_angle_r_beta	ankle_angle_r	subtalar_angle_r	mtp_angle_r	hip_flexion_l	hip_adduction_l	hip_rotation_l	knee_angle_l	knee_angle_l_beta	ankle_angle_l	subtalar_angle_l	mtp_angle_l	lumbar_extension	lumbar_bending	lumbar_rotation	arm_flex_r	arm_add_r	arm_rot_r	elbow_flex_r	pro_sup_r	wrist_flex_r	wrist_dev_r	arm_flex_l	arm_add_l	arm_rot_l	elbow_flex_l	pro_sup_l	wrist_flex_l	wrist_dev_l
     43.06000000	     -2.88200692	     -6.04282284	     -5.20008419	      0.98999384	      0.92558957	      0.56733350	     13.54068641	      6.32717314	     -9.35580659	     22.64659072	     22.64659072	     13.36781130	     -2.25021955	     -0.48488270	     22.71981846	    -14.82351523	      0.83118545	     68.55046566	     68.55046566	      3.72408389	    -19.24851802	     16.81438688	    -10.85298450	      8.40785191	      0.48020271	     20.40762519	    -18.73656198	    -18.32822398	     48.62880253	     45.52088298	      0.00000000	      0.00000000	     17.57483650	    -12.09222258	      2.22526977	     57.08400493	     46.34565857	      0.00000000	      0.00000000
     43.07928571	     -2.60745740	     -6.05585990	     -4.81220570	      0.98961858	      0.92428538	      0.57007518	     13.47169967	      6.39851538	     -9.46272080	     23.81941665	     23.81941665	     14.10404223	     -2.95106197	     -0.69774699	     23.81798437	    -15.36481631	      0.68040525	     68.56668273	     68.56668273	      5.42980814	    -19.39160133	     17.42657896	    -11.13194912	      8.06555873	      0.22002134	     22.81746539	    -18.46018739	    -18.17806920	     50.17294690	     45.47406890	      0.00000000	      0.00000000	     15.04653963	    -11.81506615	      2.64858998	     54.19666849	     46.27106816	      0.00000000	      0.00000000
     43.09857143	     -2.31722483	     -6.10272104	     -4.41086656	      0.98921851	      0.92303517	      0.57271313	     13.30122712	      6.52931981	     -9.53487371	     24.86556424	     24.86556424	     15.03597027	     -3.56236477	     -0.16724530	     24.97779017	    -15.81969229	      0.65657074	     68.45840592	     68.45840592	      7.97527580	    -19.46898793	     20.56853023	    -11.37401372	      7.76704904	      0.59541884	     24.90917042	    -18.87370795	    -17.48507287	     51.45308132	     45.42552611	      0.00000000	      0.00000000	     13.83631857	    -10.74779460	      2.81051625	     48.36356258	     46.24970464	      0.00000000	      0.00000000
     43.11785714	     -2.06354894	     -6.10657930	     -3.94961580	      0.98876276	      0.92160026	      0.57515436	     13.17159340	      6.62290686	     -9.59735006	     25.89379206	     25.89379206	     15.92431413	     -4.28906824	      0.24251966	     26.08566556	    -16.23164300	      0.55119134	     67.92488108	     67.92488108	      9.85593028	    -19.53904257	     21.85240510	    -11.62885800	      7.43292234	      0.66814229	     27.09873127	    -19.01958266	    -17.10055503	     53.05804089	     45.38089959	      0.00000000	      0.00000000	     12.18351136	    -10.06360778	      2.97871555	     43.53130498	     46.23499841	      0.00000000	      0.00000000
     43.13714286	     -1.81519242	     -6.13953052	     -3.40281711	      0.98820749	      0.92017620	      0.57726038	     12.99349854	      6.75879761	     -9.65890717	     26.78812745	     26.78812745	     16.73477553	     -5.09469417	      0.56671295	     27.14330878	    -16.55465812	      0.54289709	     66.97332774	     66.97332774	     11.46918131	    -19.56822771	     22.69573408	    -11.89781535	      7.16090619	      0.72015472	     29.35900723	    -19.18453316	    -16.68840331	     54.47710945	     45.34279415	      0.00000000	      0.00000000	     10.59470303	     -9.47843393	      3.07024338	     38.96106376	     46.22290554	      0.00000000	      0.00000000
     43.15642857	     -1.62248486	     -6.10905502	     -2.80135697	      0.98753342	      0.91875885	      0.57896863	     12.82862048	      6.82616906	     -9.72043589	     27.55385598	     27.55385598	     17.47719836	     -5.93791346	      0.86307077	     28.17510810	    -16.68263833	      0.55621180	     65.59138842	     65.59138842	     12.80024144	    -19.59489764	     23.13237300	    -12.11874843	      6.83637286	      0.76402703	     31.53023873	    -19.43332241	    -16.21501908	     55.88281172	     45.30570961	      0.00000000	      0.00000000	      9.01788110	     -8.97129351	      3.02034054	     34.67937774	     46.22385067	      0.00000000	      0.00000000
     43.17571429	     -1.48266693	     -6.03436968	     -2.13010925	      0.98679037	      0.91745216	      0.58021577	     12.64554403	      6.83817959	     -9.81469134	     28.14079671	     28.14079671	     18.04673583	     -6.78579408	      0.80408704	     29.13345361	    -16.59428345	      0.64193610	     63.73439810	     63.73439810	     13.72951196	    -19.60584683	     23.07200387	    -12.30582348	      6.45553363	      0.61808962	     33.74154105	    -19.49027957	    -16.10163326	     57.37150143	     45.26488582	      0.00000000	      0.00000000	      6.72923011	     -8.85937238	      3.13412416	     32.50733278	     46.17572424	      0.00000000	      0.00000000
     43.19500000	     -1.45353489	     -5.98097623	     -1.37109975	      0.98590194	      0.91641126	      0.58094514	     12.43589298	      6.86747227	     -9.99015721	     28.40006712	     28.40006712	     18.49233795	     -7.61302675	      0.91200935	     30.07672081	    -16.34020308	      0.84626018	     61.40179133	     61.40179133	     14.37646294	    -19.58711662	     22.92945745	    -12.39490445	      6.21118965	      0.46223727	     35.81053096	    -19.66968005	    -15.66103232	     58.77835763	     45.21662691	      0.00000000	      0.00000000	      4.81339450	     -8.73143285	      3.24725564	     29.85882072	     46.13316646	      0.00000000	      0.00000000
     43.21428571	     -1.46464145	     -5.87012724	     -0.58148923	      0.98496353	      0.91573700	      0.58117598	     12.17707011	      6.80398819	    -10.21967341	     28.48070373	     28.48070373	     18.91627187	     -8.24715610	      1.14775045	     30.84612413	    -15.84547140	      1.13141554	     58.61924346	     58.61924346	     14.55572071	    -19.55854228	     22.14904420	    -12.40069756	      5.91711166	      0.69380238	     37.55732415	    -20.50272203	    -14.59426781	     60.22969054	     45.15965948	      0.00000000	      0.00000000	      3.40826941	     -8.47317911	      3.21370394	     26.61375024	     46.12284819	      0.00000000	      0.00000000
     43.23357143	     -1.54071789	     -5.69588368	      0.24539935	      0.98401072	      0.91549278	      0.58093085	     11.84614308	      6.64496864	    -10.53117316	     28.29178071	     28.29178071	     19.19101748	     -8.72882616	      1.17877482	     31.47571821	    -15.09397155	      1.54147073	     55.47209103	     55.47209103	     14.60388979	    -19.49465762	     21.81035540	    -12.37523613	      5.55827520	      0.65093804	     39.41748162	    -20.83195755	    -14.48838151	     61.69065011	     45.12145858	      0.00000000	      0.00000000	      1.26391894	     -8.54518394	      3.22216872	     25.41254713	     46.08310702	      0.00000000	      0.00000000
     43.25285714	     -1.74355431	     -5.53010680	      1.07449914	      0.98303937	      0.91559916	      0.58028156	     11.50141627	      6.46600143	    -10.93755429	     27.81541011	     27.81541011	     19.29850313	     -9.00223780	      1.11816500	     31.96454020	    -14.24104707	      2.04021061	     51.91876185	     51.91876185	     13.82665266	    -19.39714126	     19.79489594	    -12.22590199	      5.25222936	      0.66064182	     41.01920520	    -21.53619686	    -13.57734074	     63.54837483	     45.05749968	      0.00000000	      0.00000000	     -0.81630393	     -8.64969317	      3.25303548	     24.45202260	     46.02976635	      0.00000000	      0.00000000
     43.27214286	     -1.95361827	     -5.29758671	      1.87389533	      0.98211614	      0.91628451	      0.57925401	     10.99849436	      6.19965221	    -11.40036230	     27.05877814	     27.05877814	     19.32717284	     -9.10597550	      1.20741391	     32.23291718	    -13.20740669	      2.64724291	     48.21287557	     48.21287557	     13.45846603	    -19.22392516	     19.50900063	    -12.06878086	      4.85564876	      0.84916154	     42.70073843	    -22.12537068	    -13.53950442	     64.71039564	     45.03099219	      0.00000000	      0.00000000	     -2.81365119	     -8.79713022	      3.26641193	     23.76958394	     45.98695115	      0.00000000	      0.00000000
     43.29142857	     -2.21067198	     -5.11898516	      2.64777051	      0.98126131	      0.91728377	      0.57793251	     10.37300023	      5.96392535	    -11.97855234	     25.99310580	     25.99310580	     19.22762306	     -8.72721786	      1.11685882	     32.28935536	    -12.20732491	      3.38228087	     44.31895483	     44.31895483	     12.52306820	    -18.90203614	     17.78819980	    -11.93324547	      4.55226319	      0.76827489	     44.46964547	    -22.56252962	    -12.98820199	     66.52010519	     44.97034438	      0.00000000	      0.00000000	     -5.00376419	     -8.95579005	      3.32560086	     23.55030488	     45.92266029	      0.00000000	      0.00000000
     43.31071429	     -2.54900844	     -4.91672193	      3.36359475	      0.98060926	      0.91843551	      0.57642774	      9.68576904	      5.68658785	    -12.73490941	     24.69556237	     24.69556237	     18.94075053	     -8.29145310	      0.55228638	     32.14847043	    -11.36401684	      3.74234227	     40.22012798	     40.22012798	     10.48704165	    -18.43500489	     13.54261329	    -11.64566054	      4.18761280	      0.87870450	     45.92823314	    -23.42560649	    -11.81913507	     68.39661267	     44.90630470	      0.00000000	      0.00000000	     -7.48561423	     -9.26417802	      3.53488241	     24.63893786	     45.80387898	      0.00000000	      0.00000000
     43.33000000	     -2.90440406	     -4.77564988	      3.94741676	      0.97999091	      0.91976569	      0.57491099	      8.98178850	      5.55783451	    -13.14597662	     23.31895679	     23.31895679	     18.72194627	     -7.97869632	      0.71717563	     32.01195616	    -10.63276040	      4.15439470	     36.58539367	     36.58539367	     10.13130960	    -17.37559638	     13.49559374	    -11.32879547	      3.82320489	      1.28374024	     47.56014369	    -24.04459181	    -11.85645652	     69.21072061	     44.89527782	      0.00000000	      0.00000000	     -9.22015338	     -9.38968212	      3.59014026	     24.34657925	     45.75791920	      0.00000000	      0.00000000
     43.34928571	     -3.21317381	     -4.70297305	      4.49090955	      0.97957824	      0.92113562	      0.57322719	      8.07048846	      5.49104981	    -13.75604986	     21.68409545	     21.68409545	     18.45736248	     -7.20046949	      0.75171426	     31.74663887	    -10.11385428	      4.33152367	     33.23371815	     33.23371815	      9.76894877	    -15.90423280	     13.02943599	    -11.09216106	      3.55695448	      1.52197667	     49.24311288	    -24.49122170	    -11.62869971	     70.32349716	     44.86656636	      0.00000000	      0.00000000	    -11.04449269	     -9.48147597	      3.64546489	     24.43415386	     45.70600008	      0.00000000	      0.00000000
